<?xml version="1.0" encoding="iso-8859-1"?>
<!-- Generator: Adobe Illustrator 19.0.0, SVG Export Plug-In . SVG Version: 6.00 Build 0)  -->
<svg version="1.1" id="Layer_1" xmlns="http://www.w3.org/2000/svg" xmlns:xlink="http://www.w3.org/1999/xlink" x="0px" y="0px"
	 viewBox="0 0 492.308 492.308" style="enable-background:new 0 0 492.308 492.308;" xml:space="preserve">
<g>
	<g>
		<path d="M492.308,157.005c0-68.5-75.087-124.231-167.385-124.231S157.538,88.505,157.538,157.005
			c0,5.418,0.515,10.809,1.441,16.143C70.597,176.43,0,230.668,0,297.067c0,32.904,16.798,63.543,47.452,86.813l-6.577,75.654
			l88.769-41.385c12.308,2.096,24.99,3.154,37.74,3.154c92.298,0,167.385-55.731,167.385-124.236c0-5.493-0.649-10.865-1.585-16.171
			c9.947-0.36,19.835-1.172,29.479-2.81l88.769,41.389l-6.577-75.659C475.51,220.548,492.308,189.909,492.308,157.005z
			 M167.385,401.611c-12.635,0-25.183-1.139-37.279-3.385L127,397.654l-63.548,29.63l4.587-52.87l-4.635-3.26
			C35.221,351.313,19.692,325,19.692,297.067c0-57.644,66.25-104.543,147.692-104.543s147.692,46.899,147.692,104.543
			S248.827,401.611,167.385,401.611z M428.904,231.091l-4.635,3.26l4.587,52.875l-63.548-29.635l-3.106,0.572
			c-11.224,2.082-22.841,3.107-34.533,3.261c-19.603-48.467-78.065-84.459-148.423-88.147c-1.198-5.367-2.015-10.793-2.015-16.273
			c0-57.644,66.25-104.538,147.692-104.538s147.692,46.894,147.692,104.538C472.615,184.938,457.087,211.25,428.904,231.091z"/>
	</g>
</g>
<g>
	<g>
		<rect x="73.797" y="265.945" width="187.175" height="19.692"/>
	</g>
</g>
<g>
	<g>
		<rect x="100.884" y="321.743" width="133.002" height="19.692"/>
	</g>
</g>
<g>
</g>
<g>
</g>
<g>
</g>
<g>
</g>
<g>
</g>
<g>
</g>
<g>
</g>
<g>
</g>
<g>
</g>
<g>
</g>
<g>
</g>
<g>
</g>
<g>
</g>
<g>
</g>
<g>
</g>
</svg>
